Coordinates
version=1
nRows=13
nColumns=40
inDegrees=yes

Units are S.I. units (second, meters, Newtons, ...)
If the header above contains a line with 'inDegrees', this indicates whether rotational values are in degrees (yes) or radians (no).

endheader
time	pelvis_tilt	pelvis_list	pelvis_rotation	pelvis_tx	pelvis_ty	pelvis_tz	hip_flexion_r	hip_adduction_r	hip_rotation_r	knee_angle_r	knee_angle_r_beta	ankle_angle_r	subtalar_angle_r	mtp_angle_r	hip_flexion_l	hip_adduction_l	hip_rotation_l	knee_angle_l	knee_angle_l_beta	ankle_angle_l	subtalar_angle_l	mtp_angle_l	lumbar_extension	lumbar_bending	lumbar_rotation	arm_flex_r	arm_add_r	arm_rot_r	elbow_flex_r	pro_sup_r	wrist_flex_r	wrist_dev_r	arm_flex_l	arm_add_l	arm_rot_l	elbow_flex_l	pro_sup_l	wrist_flex_l	wrist_dev_l
      4.55000000	    -24.48603745	      3.70531188	     -8.32196297	     -0.34400490	      0.95995676	     -1.07977932	      7.63840332	    -10.44108260	      5.36674098	     48.28197836	      0.84267949	     -0.22864571	      0.00000000	      0.00000000	     49.20392845	      0.30849222	     -9.64926030	     43.05247617	      0.75140746	      5.47570767	      0.00000000	      0.00000000	      4.89460739	     -9.36507578	     11.13842417	     89.96910354	     -9.25664399	     15.78694628	     46.85264828	     48.49367409	      0.00000000	      0.00000000	     89.95708235	    -21.43215996	     10.20079873	     47.26697773	     79.70166879	      0.00000000	      0.00000000
      4.55500000	    -24.56904283	      3.58704184	     -8.29238959	     -0.34418404	      0.95920662	     -1.07965205	      7.69581901	    -10.25141456	      5.40197019	     48.34644870	      0.84380471	     -0.12951862	      0.00000000	      0.00000000	     49.43092082	      0.20086403	     -9.47393280	     43.34755818	      0.75655761	      5.51180533	      0.00000000	      0.00000000	      4.94916478	     -9.24999264	     11.06384095	     89.96919648	     -9.08488688	     15.54233880	     46.69864965	     47.76941676	      0.00000000	      0.00000000	     89.95703076	    -21.33292643	     10.34834916	     47.40803430	     73.95842244	      0.00000000	      0.00000000
      4.56000000	    -24.56931599	      3.66981484	     -8.37143586	     -0.34423289	      0.95849911	     -1.07953539	      7.70947709	    -10.35116919	      5.38743695	     48.35389070	      0.84393460	     -0.00582757	      0.00000000	      0.00000000	     49.53257484	      0.16374791	     -9.67767983	     43.57929775	      0.76060223	      5.70431418	      0.00000000	      0.00000000	      4.94929006	     -9.37995633	     11.24102903	     89.96918055	     -9.31739234	     15.70106989	     46.91047949	     47.29983218	      0.00000000	      0.00000000	     89.95742013	    -21.28255452	     10.80431651	     47.64008346	     70.87010112	      0.00000000	      0.00000000
      4.56500000	    -24.58175846	      3.69379320	     -8.36338867	     -0.34427983	      0.95783147	     -1.07954465	      7.71690184	    -10.36884214	      5.37988316	     48.39895689	      0.84472115	      0.06624368	      0.00000000	      0.00000000	     49.64701841	      0.15826127	     -9.72494302	     43.79493181	      0.76436576	      5.80625434	      0.00000000	      0.00000000	      4.93926530	     -9.39375102	     11.19247247	     89.96924307	     -9.24235557	     15.69848188	     46.93153784	     48.04921800	      0.00000000	      0.00000000	     89.95741866	    -21.34554379	      9.95525981	     47.47428908	     79.71300349	      0.00000000	      0.00000000
      4.57000000	    -24.62340233	      3.63104082	     -8.34331398	     -0.34442587	      0.95714368	     -1.07949715	      7.73679861	    -10.25822051	      5.39519777	     48.44600258	      0.84554225	      0.18118115	      0.00000000	      0.00000000	     49.81196525	      0.11352604	     -9.58167344	     44.01661530	      0.76823486	      5.85295816	      0.00000000	      0.00000000	      4.95391486	     -9.34110640	     11.19009110	     89.96928648	     -9.18962261	     15.50669567	     46.89946960	     47.51781225	      0.00000000	      0.00000000	     89.95748323	    -21.22847126	     10.13174578	     47.58712983	     75.49026599	      0.00000000	      0.00000000
      4.57500000	    -24.58143291	      3.73437698	     -8.39167628	     -0.34444335	      0.95654589	     -1.07945188	      7.70533335	    -10.37836293	      5.38434489	     48.47326132	      0.84601801	      0.30135654	      0.00000000	      0.00000000	     49.84796054	      0.13098097	     -9.76144224	     44.19511522	      0.77135027	      6.06179601	      0.00000000	      0.00000000	      4.90500199	     -9.48494086	     11.28914068	     89.96928282	     -9.32305591	     15.66125577	     47.05516722	     47.00564261	      0.00000000	      0.00000000	     89.95765456	    -21.22253081	     10.58672415	     47.80533230	     71.73447781	      0.00000000	      0.00000000
      4.58000000	    -24.65351538	      3.73115338	     -8.42541321	     -0.34456837	      0.95573091	     -1.07939797	      7.78720929	    -10.36774144	      5.36671400	     48.52132527	      0.84685688	      0.46019679	      0.00000000	      0.00000000	     50.04419117	      0.08377249	     -9.74401074	     44.44248924	      0.77566776	      6.14506010	      0.00000000	      0.00000000	      4.97059260	     -9.48201908	     11.30928968	     89.96930381	     -9.30536375	     15.65557262	     47.10228137	     46.58491093	      0.00000000	      0.00000000	     89.95777430	    -21.20394579	     10.77363461	     47.95495655	     68.76901574	      0.00000000	      0.00000000
      4.58500000	    -24.79422661	      3.62688537	     -8.41126420	     -0.34482230	      0.95490562	     -1.07933230	      7.92900608	    -10.18735750	      5.41410937	     48.59498467	      0.84814248	      0.58034572	      0.00000000	      0.00000000	     50.33525449	     -0.00800847	     -9.52474310	     44.71052278	      0.78034583	      6.15526468	      0.00000000	      0.00000000	      5.08749054	     -9.35230844	     11.24394581	     89.96941331	     -9.09300979	     15.41201447	     46.98846861	     46.19052357	      0.00000000	      0.00000000	     89.95764374	    -21.12744514	     10.68205013	     48.00702764	     65.55910992	      0.00000000	      0.00000000
      4.59000000	    -24.74416238	      3.77179731	     -8.46392518	     -0.34474335	      0.95434367	     -1.07934985	      7.90202377	    -10.39165094	      5.34247440	     48.59606793	      0.84816139	      0.69074629	      0.00000000	      0.00000000	     50.33113014	      0.03214861	     -9.80338133	     44.83291935	      0.78248206	      6.37979705	      0.00000000	      0.00000000	      5.02431521	     -9.50419163	     11.29314200	     89.96940290	     -9.15486034	     15.49763243	     47.13070900	     47.15736438	      0.00000000	      0.00000000	     89.95790380	    -21.27466160	      9.69831815	     47.75573415	     79.55912194	      0.00000000	      0.00000000
      4.59500000	    -24.75245513	      3.82170803	     -8.47374008	     -0.34481635	      0.95370015	     -1.07932034	      7.91149892	    -10.42557480	      5.37058963	     48.62797278	      0.84871823	      0.83457304	      0.00000000	      0.00000000	     50.43599073	      0.05224070	     -9.84125687	     45.00910148	      0.78555701	      6.47692278	      0.00000000	      0.00000000	      5.02015922	     -9.58265256	     11.32577633	     89.96941397	     -9.18567605	     15.50664594	     47.16793129	     46.73614754	      0.00000000	      0.00000000	     89.95802466	    -21.20643901	     10.08920626	     47.97549686	     74.55051834	      0.00000000	      0.00000000
      4.60000000	    -24.78537738	      3.82819408	     -8.47831006	     -0.34490524	      0.95304607	     -1.07932644	      7.95183207	    -10.40546312	      5.38259102	     48.66893252	      0.84943312	      0.94714601	      0.00000000	      0.00000000	     50.57324702	      0.03971781	     -9.82166112	     45.22580659	      0.78933923	      6.57881430	      0.00000000	      0.00000000	      5.02519197	     -9.58590726	     11.31475901	     89.96945377	     -9.14105076	     15.46910557	     47.18791227	     46.78655333	      0.00000000	      0.00000000	     89.95807676	    -21.21712484	      9.55111135	     47.91896647	     79.42292130	      0.00000000	      0.00000000
      4.60500000	    -24.84068674	      3.86766344	     -8.47653654	     -0.34504676	      0.95235425	     -1.07932129	      8.02840912	    -10.43074902	      5.37443327	     48.73476258	      0.85058207	      1.07446058	      0.00000000	      0.00000000	     50.72245762	      0.04542640	     -9.85947836	     45.39443053	      0.79228227	      6.66197904	      0.00000000	      0.00000000	      5.06346249	     -9.64426906	     11.33282824	     89.96945928	     -9.15780543	     15.45678586	     47.27260864	     46.40614612	      0.00000000	      0.00000000	     89.95816910	    -21.19107233	      9.95866894	     48.10843766	     74.89432445	      0.00000000	      0.00000000
      4.61000000	    -24.84681437	      3.91315506	     -8.46319307	     -0.34510076	      0.95169318	     -1.07939060	      8.04347356	    -10.48038289	      5.34159316	     48.78491707	      0.85145743	      1.18709441	      0.00000000	      0.00000000	     50.82666702	      0.08130894	     -9.88340441	     45.56815018	      0.79531425	      6.74243549	      0.00000000	      0.00000000	      5.05474057	     -9.70602201	     11.33871532	     89.96948184	     -9.16462421	     15.40772860	     47.30348130	     46.15804289	      0.00000000	      0.00000000	     89.95824978	    -21.13251330	     10.12172243	     48.20343274	     72.37133817	      0.00000000	      0.00000000
